<?xml version="1.0" standalone="no"?>
<!DOCTYPE svg PUBLIC "-//W3C//DTD SVG 20010904//EN"
 "http://www.w3.org/TR/2001/REC-SVG-20010904/DTD/svg10.dtd">
<svg version="1.0" xmlns="http://www.w3.org/2000/svg"
 width="260.000000pt" height="260.000000pt" viewBox="0 0 260.000000 260.000000"
 preserveAspectRatio="xMidYMid meet">
<metadata>
Created by potrace 1.11, written by Peter Selinger 2001-2013
</metadata>
<g transform="translate(0.000000,260.000000) scale(0.100000,-0.100000)"
fill="#000000" stroke="none">
<path d="M0 1300 l0 -1300 1300 0 1300 0 0 1300 0 1300 -1300 0 -1300 0 0
-1300z m1730 585 c0 -11 -13 -15 -55 -15 -85 0 -153 -18 -191 -52 -52 -46 -64
-101 -64 -300 l0 -168 178 -238 c98 -130 204 -260 235 -289 65 -59 136 -96
220 -113 37 -7 57 -16 57 -26 0 -12 -49 -14 -320 -14 -278 0 -320 2 -320 15 0
12 13 15 58 15 141 0 218 63 197 161 -5 23 -262 384 -315 442 -7 8 -338 -446
-360 -495 -31 -67 20 -108 135 -108 51 0 65 -3 65 -15 0 -13 -51 -15 -395 -15
-328 0 -395 2 -395 14 0 9 20 16 62 20 88 10 146 39 205 99 28 29 137 171 242
316 l191 263 0 144 c0 79 -5 167 -11 196 -22 101 -100 148 -244 148 -42 0 -55
4 -55 15 0 13 56 15 440 15 384 0 440 -2 440 -15z"/>
</g>
</svg>
