# Blender v2.80 (sub 75) OBJ File: 'Petals.blend'
# www.blender.org
mtllib Petals.mtl
o Petal2
v 0.133209 -0.442735 -0.005557
v 0.144251 -0.447515 -0.000532
v 0.156205 -0.444435 0.001758
v -0.060461 0.460363 0.025807
v 0.041605 0.458547 0.026742
v 0.056047 0.502149 0.060364
v -0.037171 0.513706 0.060187
v 0.097099 0.498785 0.069483
v 0.182378 0.459851 0.092119
v 0.236878 0.432572 0.093819
v 0.321789 0.371544 0.083709
v 0.371356 0.312050 0.071591
v 0.353782 0.337134 0.077284
v 0.387778 0.293333 0.070242
v 0.392391 0.274439 0.065508
v 0.328576 0.182345 0.020617
v 0.400489 0.260101 0.063967
v 0.424047 0.185191 0.055565
v 0.421474 0.005129 0.043584
v 0.383364 -0.107858 0.036138
v 0.409804 -0.039490 0.041731
v 0.363967 -0.141552 0.031170
v 0.343368 -0.015719 0.027254
v 0.119838 -0.160412 -0.060359
v 0.361086 -0.161744 0.032303
v 0.331600 -0.211863 0.022166
v 0.280574 -0.117796 -0.000666
v 0.266665 -0.321342 0.007969
v 0.309414 -0.256863 0.017941
v 0.235387 -0.373744 0.007156
v 0.192875 -0.417795 0.004939
v 0.167114 -0.425019 -0.001572
v 0.140952 -0.388737 -0.020873
v 0.092198 -0.434508 -0.020407
v -0.087548 -0.205110 -0.072552
v -0.134878 -0.158119 -0.071660
v -0.017921 -0.286209 -0.042560
v 0.027786 -0.067280 -0.037887
v 0.113684 -0.437572 -0.012597
v 0.104068 -0.437329 -0.014806
v 0.097556 -0.432963 -0.016895
v 0.041677 -0.448202 -0.019970
v 0.086092 -0.441264 -0.016658
v 0.049148 -0.453004 -0.018037
v 0.070501 -0.454530 -0.014818
v 0.057098 -0.467631 -0.012241
v 0.162362 -0.134628 -0.053179
v 0.065141 -0.468876 -0.010496
v 0.113748 -0.007160 -0.054833
v -0.008938 -0.448144 -0.024990
v 0.014216 -0.452256 -0.021832
v -0.066676 -0.461583 -0.021594
v -0.054809 -0.462084 -0.021871
v -0.115760 -0.441619 -0.023928
v -0.122454 -0.355150 -0.047042
v -0.130904 -0.424510 -0.028196
v -0.175781 -0.400039 -0.028668
v -0.167949 -0.414350 -0.024857
v -0.200511 -0.391120 -0.024744
v -0.391341 -0.076962 -0.006083
v -0.164972 -0.231310 -0.061630
v -0.210497 -0.381263 -0.025109
v -0.235078 -0.340161 -0.029692
v -0.266639 -0.307360 -0.026840
v -0.290556 -0.272983 -0.023146
v -0.312785 -0.232866 -0.020315
v -0.370631 -0.141841 -0.006888
v -0.391468 0.065228 -0.009172
v -0.423019 0.035025 0.002969
v -0.423195 0.017517 0.002853
v -0.432641 0.065382 0.008334
v -0.438126 0.136651 0.018886
v -0.430127 0.164313 0.021202
v -0.383029 0.190112 0.010877
v -0.432377 0.214182 0.034750
v -0.429420 0.240176 0.041185
v -0.418470 0.269552 0.046994
v -0.370905 0.333207 0.057129
v -0.399990 0.300068 0.052062
v -0.273550 0.406049 0.066238
v -0.323186 0.371612 0.061795
v -0.243243 0.433411 0.070483
v -0.185537 0.473225 0.071446
v -0.123197 0.482644 0.055158
v -0.096991 0.477979 0.043244
v 0.042907 -0.278646 -0.038402
v -0.063295 0.507042 0.057700
v -0.078076 0.500496 0.055267
v 0.085523 0.333443 -0.003226
v 0.182348 0.363142 0.050320
v -0.133401 0.340658 0.004003
v 0.260499 0.285026 0.033867
v -0.308536 0.120717 -0.015530
v -0.035709 0.285672 -0.026232
v 0.034086 0.242176 -0.032944
v 0.141680 0.212979 -0.038846
v -0.217821 0.205053 -0.016168
v -0.123869 0.197714 -0.051867
v -0.095449 0.135269 -0.067947
v 0.025042 0.064983 -0.043164
v 0.107613 0.115219 -0.058044
v 0.280362 0.086710 -0.008862
v 0.428508 0.056961 0.046757
v -0.201691 0.048181 -0.049088
v -0.013771 0.085793 -0.046354
v -0.073325 0.032351 -0.070914
vt 0.659465 0.021717
vt 0.673369 0.024990
vt 0.646100 0.025389
vt 0.434080 0.997180
vt 0.533113 0.920794
vt 0.538800 0.981600
vt 0.586738 0.975672
vt 0.757057 0.885062
vt 0.692438 0.923101
vt 0.700010 0.812595
vt 0.923152 0.742552
vt 0.899900 0.770800
vt 0.858911 0.809445
vt 0.884105 0.606219
vt 0.991474 0.604510
vt 0.962387 0.685927
vt 0.948528 0.317719
vt 0.907466 0.406333
vt 0.927288 0.287041
vt 0.690164 0.311177
vt 0.636230 0.279501
vt 0.803234 0.137453
vt 0.824017 0.316361
vt 0.884574 0.225439
vt 0.922182 0.268820
vt 0.856684 0.185324
vt 0.763415 0.084143
vt 0.660063 0.072394
vt 0.715576 0.046212
vt 0.625911 0.030696
vt 0.614390 0.031127
vt 0.598925 0.027341
vt 0.547560 0.021082
vt 0.582268 0.016155
vt 0.562269 0.006015
vt 0.551638 0.018552
vt 0.573201 0.004600
vt 0.515929 0.017424
vt 0.490789 0.022206
vt 0.428125 0.010930
vt 0.373411 0.104972
vt 0.353140 0.041550
vt 0.304739 0.064426
vt 0.314909 0.053209
vt 0.267258 0.081539
vt 0.278687 0.073221
vt 0.201782 0.146096
vt 0.238152 0.117339
vt 0.295923 0.214874
vt 0.050712 0.350483
vt 0.143604 0.210813
vt 0.017788 0.458495
vt 0.018581 0.441692
vt 0.049806 0.488060
vt 0.007857 0.488183
vt 0.060511 0.618153
vt 0.000474 0.559054
vt 0.007273 0.587882
vt 0.395932 0.241667
vt 0.475853 0.175297
vt 0.485168 0.519341
vt 0.547024 0.179077
vt 0.535007 0.379755
vt 0.003513 0.639728
vt 0.006289 0.667398
vt 0.017145 0.699758
vt 0.068850 0.772973
vt 0.037179 0.734205
vt 0.279921 0.946696
vt 0.370783 0.950988
vt 0.343744 0.957071
vt 0.406512 0.988891
vt 0.410907 0.920885
vt 0.456099 0.726334
vt 0.256260 0.644269
vt 0.334351 0.781376
vt 0.178629 0.862993
vt 0.795749 0.732033
vt 0.591451 0.782189
vt 0.349558 0.630742
vt 0.545797 0.672038
vt 0.664558 0.649015
vt 0.386323 0.570726
vt 0.176314 0.556266
vt 0.273229 0.474500
vt 0.531679 0.496030
vt 0.821517 0.512726
vt 0.613708 0.550551
vt 0.638889 0.422609
vt 0.343465 0.283529
vt 0.411937 0.466632
vt 0.944547 0.721933
vt 0.951657 0.701664
vt 0.121998 0.819791
vt 0.999125 0.473250
vt 0.979412 0.380774
vt 0.991550 0.423717
vt 0.689276 0.038121
vt 0.607641 0.030105
vt 0.604188 0.029145
vt 0.440143 0.010321
vt 0.369899 0.029200
vt 0.171824 0.175841
vt 0.075704 0.292247
vt 0.214868 0.897355
vt 0.391203 0.980043
vn -0.2808 0.2308 0.9316
vn -0.2646 0.3072 0.9141
vn -0.2616 0.3009 0.9171
vn -0.0060 -0.5699 0.8217
vn -0.1817 -0.4179 0.8901
vn -0.1820 -0.5382 0.8229
vn -0.3634 -0.4197 0.8317
vn -0.2088 -0.3943 0.8949
vn -0.3236 -0.3920 0.8612
vn -0.2965 -0.4134 0.8609
vn -0.2322 -0.3241 0.9171
vn -0.1493 -0.3177 0.9363
vn -0.1976 -0.3849 0.9015
vn -0.3288 -0.1847 0.9262
vn -0.3414 -0.1386 0.9296
vn -0.2824 -0.2529 0.9254
vn -0.2349 -0.0020 0.9720
vn -0.3383 0.0456 0.9399
vn -0.3258 0.0235 0.9451
vn -0.2754 0.0512 0.9600
vn -0.0120 0.0679 0.9976
vn -0.3207 0.1238 0.9391
vn -0.3995 0.0426 0.9158
vn -0.3324 0.0520 0.9417
vn -0.3550 0.0672 0.9324
vn -0.3066 0.0639 0.9497
vn -0.3083 0.1956 0.9310
vn -0.2384 0.2092 0.9484
vn -0.3083 0.2607 0.9149
vn -0.2265 0.2839 0.9317
vn -0.1721 0.2497 0.9529
vn -0.1440 0.5222 0.8406
vn -0.0739 0.1562 0.9850
vn -0.1202 0.2851 0.9509
vn -0.1314 0.3214 0.9378
vn -0.1300 0.2209 0.9666
vn -0.1499 0.3364 0.9297
vn -0.0940 0.2096 0.9733
vn -0.0647 0.1627 0.9845
vn 0.0266 0.2428 0.9697
vn 0.0762 0.1987 0.9771
vn 0.0886 0.2627 0.9608
vn 0.1677 0.2381 0.9567
vn 0.1902 0.3468 0.9185
vn 0.2356 0.2372 0.9424
vn 0.2489 0.2878 0.9248
vn 0.2505 0.1073 0.9622
vn 0.2001 0.1767 0.9637
vn 0.1890 0.0956 0.9773
vn 0.2323 -0.0078 0.9726
vn 0.2754 0.0588 0.9595
vn 0.3759 -0.0220 0.9264
vn 0.3388 0.0101 0.9408
vn 0.2391 -0.0551 0.9694
vn 0.3901 -0.0778 0.9175
vn 0.2426 -0.2370 0.9407
vn 0.3136 -0.1576 0.9364
vn 0.3073 -0.1977 0.9308
vn -0.1415 0.0650 0.9878
vn -0.2064 0.0553 0.9769
vn -0.2102 -0.0452 0.9766
vn 0.0090 0.0814 0.9966
vn 0.0244 0.0101 0.9997
vn 0.3180 -0.2602 0.9117
vn 0.2934 -0.2808 0.9138
vn 0.2582 -0.3060 0.9163
vn 0.1604 -0.3138 0.9358
vn 0.2064 -0.3156 0.9262
vn 0.2878 -0.4521 0.8443
vn 0.2274 -0.4515 0.8628
vn 0.2882 -0.4847 0.8258
vn 0.0896 -0.5602 0.8235
vn 0.0943 -0.4140 0.9054
vn -0.0070 -0.2605 0.9655
vn 0.2511 -0.2569 0.9332
vn 0.2130 -0.3132 0.9255
vn 0.2321 -0.3384 0.9119
vn -0.2630 -0.3711 0.8905
vn -0.2088 -0.3414 0.9164
vn 0.1838 -0.2563 0.9490
vn 0.0372 -0.1215 0.9919
vn -0.1933 -0.2506 0.9486
vn -0.0282 -0.1262 0.9916
vn 0.1870 -0.1329 0.9733
vn 0.2389 -0.0601 0.9692
vn 0.0466 0.0010 0.9989
vn -0.3372 -0.0448 0.9404
vn -0.0384 -0.0640 0.9972
vn 0.0962 0.0278 0.9950
vn 0.1634 0.0012 0.9866
vn -0.1268 -0.0242 0.9916
vn -0.2526 -0.2810 0.9259
vn -0.2503 -0.2805 0.9266
vn 0.1441 -0.3132 0.9387
vn -0.3191 -0.0032 0.9477
vn -0.3064 0.0440 0.9509
vn -0.2130 -0.0061 0.9770
vn -0.2865 0.2881 0.9137
vn -0.4118 0.4854 0.7712
vn -0.1779 0.3055 0.9354
vn 0.0659 0.1201 0.9906
vn 0.0795 0.3080 0.9481
vn 0.2445 0.0807 0.9663
vn 0.3902 0.1129 0.9138
vn 0.2889 -0.4567 0.8414
vn 0.1173 -0.5552 0.8234
usemtl Petal2
s 1
f 2/1/1 3/2/2 1/3/3
f 7/4/4 5/5/5 6/6/6
f 6/6/6 5/5/5 8/7/7
f 10/8/8 9/9/9 90/10/10
f 12/11/11 13/12/12 11/13/13
f 16/14/14 18/15/15 17/16/16
f 20/17/17 23/18/18 22/19/19
f 47/20/20 24/21/21 28/22/22
f 27/23/23 26/24/24 25/25/25
f 29/26/26 26/24/24 28/22/22
f 30/27/27 33/28/28 31/29/29
f 33/28/28 39/30/30 1/3/3
f 39/30/30 33/28/28 40/31/31
f 43/32/32 42/33/33 45/34/34
f 46/35/35 45/34/34 44/36/36
f 45/34/34 46/35/35 48/37/37
f 51/38/38 42/33/33 50/39/39
f 52/40/40 55/41/41 56/42/42
f 56/42/42 57/43/43 58/44/44
f 23/18/18 27/23/23 22/19/19
f 57/43/43 62/45/45 59/46/46
f 64/47/47 63/48/48 61/49/49
f 60/50/50 66/51/51 61/49/49
f 69/52/52 70/53/53 68/54/54
f 69/52/52 68/54/54 71/55/55
f 68/54/54 74/56/56 72/57/57
f 72/57/57 74/56/56 73/58/58
f 35/59/59 37/60/60 105/61/61
f 86/62/62 24/21/21 38/63/63
f 74/56/56 75/64/64 73/58/58
f 76/65/65 75/64/64 74/56/56
f 76/65/65 74/56/56 77/66/66
f 74/56/56 78/67/67 79/68/68
f 83/69/69 85/70/70 84/71/71
f 61/49/49 55/41/41 35/59/59
f 50/39/39 86/62/62 37/60/60
f 7/4/4 87/72/72 4/73/73
f 4/73/73 94/74/74 5/5/5
f 97/75/75 91/76/76 80/77/77
f 80/77/77 74/56/56 97/75/75
f 92/78/78 90/10/10 89/79/79
f 11/13/13 10/8/8 92/78/78
f 91/76/76 97/75/75 98/80/80
f 94/74/74 95/81/81 96/82/82
f 16/14/14 92/78/78 96/82/82
f 98/80/80 99/83/83 94/74/74
f 93/84/84 74/56/56 68/54/54
f 97/75/75 104/85/85 98/80/80
f 105/61/61 100/86/86 95/81/81
f 102/87/87 96/82/82 101/88/88
f 96/82/82 102/87/87 16/14/14
f 47/20/20 101/88/88 49/89/89
f 93/84/84 68/54/54 60/50/50
f 104/85/85 93/84/84 36/90/90
f 104/85/85 36/90/90 106/91/91
f 27/23/23 102/87/87 47/20/20
f 105/61/61 106/91/91 35/59/59
f 38/63/63 105/61/61 37/60/60
f 4/73/73 5/5/5 7/4/4
f 90/10/10 9/9/9 8/7/7
f 12/11/11 11/13/13 92/78/78
f 14/92/92 12/11/11 15/93/93
f 12/11/11 92/78/78 15/93/93
f 74/56/56 80/77/77 81/94/94 78/67/67
f 103/95/95 18/15/15 16/14/14
f 21/96/96 19/97/97 20/17/17
f 27/23/23 28/22/22 26/24/24
f 22/19/19 27/23/23 25/25/25
f 28/22/22 33/28/28 30/27/27
f 32/98/98 31/29/29 33/28/28
f 1/3/3 3/2/2 33/28/28
f 3/2/2 32/98/98 33/28/28
f 36/90/90 61/49/49 35/59/59
f 37/60/60 86/62/62 38/63/63
f 41/99/99 40/31/31 33/28/28
f 34/100/100 41/99/99 33/28/28
f 43/32/32 34/100/100 42/33/33
f 44/36/36 45/34/34 42/33/33
f 38/63/63 24/21/21 49/89/89
f 52/40/40 50/39/39 55/41/41
f 53/101/101 50/39/39 52/40/40
f 56/42/42 54/102/102 52/40/40
f 49/89/89 24/21/21 47/20/20
f 56/42/42 55/41/41 57/43/43
f 63/48/48 62/45/45 57/43/43
f 57/43/43 61/49/49 63/48/48
f 66/51/51 64/47/47 61/49/49
f 66/51/51 65/103/103 64/47/47
f 67/104/104 66/51/51 60/50/50
f 70/53/53 60/50/50 68/54/54
f 92/78/78 16/14/14 17/16/16 15/93/93
f 72/57/57 71/55/55 68/54/54
f 27/23/23 47/20/20 28/22/22
f 79/68/68 77/66/66 74/56/56
f 82/105/105 80/77/77 85/70/70 83/69/69
f 50/39/39 42/33/33 34/100/100 86/62/62
f 55/41/41 61/49/49 57/43/43
f 35/59/59 55/41/41 50/39/39
f 35/59/59 50/39/39 37/60/60
f 88/106/106 85/70/70 4/73/73
f 24/21/21 86/62/62 34/100/100
f 28/22/22 24/21/21 33/28/28
f 34/100/100 33/28/28 24/21/21
f 87/72/72 88/106/106 4/73/73
f 20/17/17 19/97/97 103/95/95 23/18/18
f 80/77/77 4/73/73 85/70/70
f 4/73/73 80/77/77 91/76/76
f 94/74/74 4/73/73 91/76/76
f 89/79/79 8/7/7 5/5/5
f 8/7/7 89/79/79 90/10/10
f 96/82/82 89/79/79 94/74/74
f 5/5/5 94/74/74 89/79/79
f 92/78/78 10/8/8 90/10/10
f 97/75/75 74/56/56 93/84/84
f 91/76/76 98/80/80 94/74/74
f 89/79/79 96/82/82 92/78/78
f 94/74/74 99/83/83 105/61/61
f 94/74/74 105/61/61 95/81/81
f 95/81/81 101/88/88 96/82/82
f 97/75/75 93/84/84 104/85/85
f 98/80/80 104/85/85 99/83/83
f 105/61/61 99/83/83 106/91/91
f 95/81/81 100/86/86 101/88/88
f 103/95/95 16/14/14 102/87/87
f 104/85/85 106/91/91 99/83/83
f 49/89/89 101/88/88 100/86/86
f 47/20/20 102/87/87 101/88/88
f 23/18/18 103/95/95 102/87/87
f 105/61/61 38/63/63 100/86/86
f 100/86/86 38/63/63 49/89/89
f 102/87/87 27/23/23 23/18/18
f 61/49/49 93/84/84 60/50/50
f 36/90/90 93/84/84 61/49/49
f 36/90/90 35/59/59 106/91/91
o Petal1
v -0.025612 0.562797 0.047121
v -0.019475 0.567689 0.047386
v 0.002759 0.551678 0.047520
v -0.031241 0.516771 0.043688
v 0.047839 0.531993 0.040364
v 0.078135 0.514765 0.035136
v 0.112444 0.504609 0.034132
v 0.175385 0.471723 0.030885
v 0.240825 0.409326 0.032011
v 0.217367 0.441220 0.030934
v 0.268401 0.380426 0.035775
v 0.292832 0.341880 0.039355
v 0.314362 0.298352 0.045087
v 0.338681 0.262712 0.055353
v 0.355216 0.231739 0.060157
v 0.378805 0.166215 0.067185
v 0.388692 0.112521 0.072624
v 0.378203 0.010983 0.061551
v 0.391293 0.067195 0.071363
v 0.375288 -0.035835 0.064807
v 0.298966 -0.120095 0.022872
v 0.360249 -0.115467 0.050454
v 0.343470 -0.158588 0.038245
v 0.330244 -0.174198 0.032255
v 0.298934 -0.222720 0.023730
v 0.244970 -0.281841 0.013890
v 0.276375 -0.251314 0.019122
v 0.215420 -0.320904 0.005612
v 0.143540 -0.217657 -0.034190
v 0.191254 -0.333525 -0.006009
v -0.086264 -0.318102 -0.044834
v -0.071622 -0.204695 -0.061180
v 0.172421 -0.364900 -0.011156
v 0.123751 -0.396439 -0.021381
v 0.103328 -0.420754 -0.020798
v 0.108065 -0.364889 -0.032026
v 0.049985 -0.224873 -0.044005
v 0.093707 -0.272148 -0.036856
v 0.056188 -0.412068 -0.032999
v -0.118958 -0.404875 -0.021062
v 0.046025 -0.417630 -0.031337
v -0.021741 -0.415605 -0.034257
v 0.028306 -0.439568 -0.023638
v -0.013230 -0.437092 -0.025040
v -0.006599 -0.445212 -0.021464
v 0.003106 -0.450307 -0.019374
v -0.147242 -0.159850 -0.060786
v -0.032189 -0.419295 -0.030993
v -0.071270 -0.449114 -0.019786
v -0.099758 -0.421661 -0.018381
v -0.088573 -0.444426 -0.017161
v -0.081224 -0.452431 -0.017774
v -0.226335 -0.103597 -0.023982
v -0.199714 -0.351686 -0.006321
v -0.192919 -0.295728 -0.014291
v -0.254112 -0.306717 0.004417
v -0.262474 -0.303422 0.008356
v 0.185923 -0.102911 -0.036224
v 0.112286 -0.031127 -0.084210
v 0.084137 -0.022647 -0.087687
v -0.307839 -0.254654 0.019362
v -0.347384 -0.193813 0.029877
v -0.373183 -0.162911 0.041100
v -0.386434 -0.137907 0.044844
v -0.416349 -0.062370 0.056169
v -0.394935 0.024814 0.040550
v -0.435540 0.041222 0.064753
v -0.434487 0.071079 0.063647
v -0.418492 0.211824 0.058676
v -0.397047 0.257545 0.050099
v -0.359073 0.330227 0.042519
v -0.381724 0.302181 0.047564
v -0.331854 0.373865 0.037153
v -0.302225 0.409157 0.032392
v -0.229904 0.458176 0.024627
v -0.174028 0.503002 0.025348
v -0.193434 0.395986 0.014604
v -0.031332 0.565678 0.046525
v -0.025459 -0.035064 -0.052185
v -0.098512 0.476142 0.029184
v -0.015243 0.417848 0.004601
v -0.186383 0.242561 -0.020737
v -0.089609 0.293115 -0.026590
v 0.105007 0.295136 -0.020536
v 0.165644 0.136490 -0.049219
v 0.235348 0.290767 0.010912
v -0.039731 0.163456 -0.044064
v 0.010638 0.194113 -0.041109
v 0.087642 0.127741 -0.071271
v 0.225429 0.125277 -0.019082
v 0.292955 0.158175 0.025604
v -0.294074 0.150461 0.008018
v -0.115398 0.064653 -0.067771
v 0.014979 -0.020447 -0.057298
v 0.302284 0.008312 0.031194
v -0.095783 -0.013790 -0.075465
vt 0.525624 0.999753
vt 0.520806 0.995102
vt 0.549517 0.987883
vt 0.508946 0.951180
vt 0.624605 0.962547
vt 0.592500 0.975800
vt 0.820653 0.854971
vt 0.790968 0.889735
vt 0.740350 0.920324
vt 0.855493 0.830303
vt 0.812560 0.726702
vt 0.914289 0.743986
vt 0.886113 0.790349
vt 0.989809 0.596003
vt 0.964869 0.670304
vt 0.946247 0.703241
vt 0.999431 0.534372
vt 0.900244 0.436544
vt 0.996255 0.483503
vt 0.876405 0.234535
vt 0.848359 0.303843
vt 0.831627 0.191403
vt 0.335974 0.308858
vt 0.296156 0.191463
vt 0.399398 0.163065
vt 0.664782 0.075342
vt 0.597555 0.090619
vt 0.608223 0.052262
vt 0.894380 0.248935
vt 0.926767 0.290368
vt 0.584370 0.031663
vt 0.537175 0.047588
vt 0.436835 0.260709
vt 0.460636 0.055245
vt 0.549597 0.237893
vt 0.526386 0.044671
vt 0.693439 0.100739
vt 0.615780 0.191057
vt 0.654086 0.221623
vt 0.507210 0.025830
vt 0.468203 0.033328
vt 0.482519 0.018615
vt 0.473900 0.024465
vt 0.387473 0.056771
vt 0.412573 0.027522
vt 0.451628 0.053079
vt 0.371376 0.074166
vt 0.396718 0.032142
vt 0.294154 0.128444
vt 0.234768 0.170085
vt 0.799160 0.566742
vt 0.717488 0.336558
vt 0.650702 0.417734
vt 0.603494 0.426419
vt 0.225119 0.174089
vt 0.175991 0.217794
vt 0.231198 0.365740
vt 0.124591 0.272767
vt 0.092077 0.301071
vt 0.073823 0.324748
vt 0.044203 0.478604
vt 0.032670 0.394401
vt 0.000968 0.491111
vt 0.000021 0.519396
vt 0.021719 0.652852
vt 0.095637 0.760835
vt 0.066813 0.739655
vt 0.047204 0.697347
vt 0.310352 0.837730
vt 0.168369 0.839167
vt 0.256804 0.886600
vt 0.323552 0.929267
vt 0.515482 0.996653
vt 0.424376 0.904096
vt 0.522378 0.844436
vt 0.658784 0.732934
vt 0.699102 0.578416
vt 0.663985 0.953254
vt 0.306230 0.680799
vt 0.421374 0.727556
vt 0.627637 0.581992
vt 0.164311 0.578162
vt 0.372497 0.513625
vt 0.882655 0.588015
vt 0.408713 0.447172
vt 0.492976 0.604185
vt 0.533044 0.619642
vt 0.535936 0.432738
vt 0.483887 0.412702
vt 0.973995 0.423817
vt 0.963585 0.373141
vt 0.762934 0.142836
vt 0.802081 0.166869
vt 0.722867 0.109318
vt 0.403688 0.024475
vt 0.131228 0.806746
vn -0.0239 -0.1510 0.9882
vn -0.0953 -0.0463 0.9944
vn 0.0203 -0.1283 0.9915
vn -0.0558 -0.2161 0.9748
vn 0.0804 0.1173 0.9898
vn 0.0636 -0.1779 0.9820
vn -0.2322 -0.1817 0.9556
vn 0.0415 0.0666 0.9969
vn -0.1250 -0.2214 0.9671
vn -0.3134 -0.1474 0.9381
vn -0.4367 -0.1171 0.8919
vn -0.4103 -0.0313 0.9114
vn -0.3700 -0.0941 0.9242
vn -0.4355 -0.0253 0.8999
vn -0.2692 0.0104 0.9630
vn -0.4130 -0.0555 0.9090
vn -0.4274 -0.0123 0.9040
vn -0.4991 -0.0258 0.8662
vn -0.3876 -0.0548 0.9202
vn -0.3225 -0.0175 0.9464
vn -0.4202 0.0084 0.9074
vn -0.1814 0.0115 0.9833
vn 0.2871 0.0948 0.9532
vn 0.3057 0.1353 0.9425
vn 0.1722 0.1549 0.9728
vn -0.3134 0.0783 0.9464
vn -0.2148 0.1048 0.9710
vn -0.2361 0.2128 0.9481
vn -0.3971 -0.0847 0.9139
vn -0.4196 -0.0669 0.9053
vn -0.2014 0.2264 0.9530
vn 0.2487 -0.2929 0.9232
vn -0.0462 0.0713 0.9964
vn 0.0296 0.2194 0.9752
vn -0.0193 0.0842 0.9963
vn 0.0094 0.1124 0.9936
vn -0.3699 0.0557 0.9274
vn -0.1555 0.0989 0.9829
vn -0.3059 0.1703 0.9367
vn -0.0224 0.3655 0.9305
vn -0.0033 0.3923 0.9198
vn -0.0043 0.3900 0.9208
vn 0.0250 0.4207 0.9069
vn 0.1704 0.2793 0.9450
vn 0.1936 0.1248 0.9731
vn 0.1697 0.3012 0.9383
vn 0.2172 0.2057 0.9542
vn 0.1848 0.1276 0.9744
vn 0.2492 0.1026 0.9630
vn 0.3151 -0.1617 0.9352
vn -0.4899 -0.0478 0.8705
vn -0.4511 0.0909 0.8878
vn -0.2920 0.0484 0.9552
vn 0.1304 0.0324 0.9909
vn 0.3162 -0.0164 0.9485
vn 0.3412 0.0830 0.9363
vn 0.3962 0.0158 0.9180
vn 0.3921 0.0600 0.9180
vn 0.5631 0.1795 0.8067
vn 0.3973 0.0263 0.9173
vn 0.3990 0.0191 0.9167
vn 0.4673 0.0427 0.8831
vn 0.5314 0.0295 0.8466
vn 0.4930 -0.0276 0.8696
vn 0.4342 -0.0366 0.9001
vn 0.2693 -0.0826 0.9595
vn 0.2461 -0.0239 0.9690
vn 0.3508 -0.0493 0.9351
vn 0.1287 -0.1595 0.9788
vn 0.1644 -0.0064 0.9864
vn 0.1241 -0.1133 0.9858
vn -0.0395 -0.1083 0.9933
vn -0.1500 -0.0876 0.9848
vn -0.0524 -0.2109 0.9761
vn 0.0147 -0.2961 0.9550
vn -0.1276 -0.2512 0.9595
vn -0.3563 -0.1368 0.9243
vn -0.0350 -0.2577 0.9656
vn 0.2410 -0.1500 0.9589
vn 0.0642 -0.2156 0.9744
vn -0.0144 -0.1691 0.9855
vn 0.3177 -0.0435 0.9472
vn 0.1832 -0.1079 0.9771
vn -0.4730 -0.0546 0.8794
vn -0.0080 -0.0222 0.9997
vn -0.0687 -0.1383 0.9880
vn 0.1230 -0.1513 0.9808
vn 0.2549 0.0164 0.9668
vn -0.1030 -0.0057 0.9947
vn -0.3755 -0.0096 0.9268
vn -0.4287 -0.0170 0.9033
vn -0.3729 0.0983 0.9226
vn -0.1617 0.0004 0.9868
vn -0.4232 0.0776 0.9027
vn 0.1713 0.0835 0.9817
vn 0.0585 0.0883 0.9944
usemtl Petal1
s 1
f 108/107/107 107/108/108 109/109/109
f 110/110/110 109/109/109 107/108/108
f 110/110/110 112/111/111 111/112/112
f 115/113/113 116/114/114 114/115/115
f 117/116/116 115/113/113 192/117/117
f 192/117/117 119/118/118 118/119/119
f 122/120/120 121/121/121 120/122/122
f 123/123/123 122/120/120 201/124/124
f 125/125/125 123/123/123 201/124/124
f 130/126/126 127/127/127 131/128/128
f 153/129/129 161/130/130 137/131/131
f 139/132/132 142/133/133 140/134/134
f 127/127/127 130/126/126 129/135/135 128/136/136
f 141/137/137 142/133/133 145/138/138
f 142/133/133 141/137/137 140/134/134
f 142/133/133 138/139/139 148/140/140
f 138/139/139 142/133/133 143/141/141
f 147/142/142 145/138/138 142/133/133
f 138/139/139 137/131/131 148/140/140
f 136/143/143 144/144/144 142/133/133
f 135/145/145 144/144/144 136/143/143
f 142/133/133 148/140/140 147/142/142
f 149/146/146 147/142/142 148/140/140
f 150/147/147 149/146/146 148/140/140
f 152/148/148 149/146/146 150/147/147
f 150/147/147 151/149/149 152/148/148
f 156/150/150 155/151/151 154/152/152
f 146/153/153 156/150/150 154/152/152
f 156/150/150 157/154/154 155/151/151
f 146/153/153 137/131/131 161/130/130
f 160/155/155 161/130/130 162/156/156
f 196/157/157 164/158/158 127/127/127
f 165/159/159 166/160/160 144/144/144
f 144/144/144 166/160/160 143/141/141
f 163/161/161 161/130/130 167/162/162
f 159/163/163 168/164/164 167/162/162
f 169/165/165 168/164/164 170/166/166
f 172/167/167 171/168/168 170/166/166
f 171/168/168 172/167/167 173/169/169
f 174/170/170 172/167/167 175/171/171
f 177/172/172 178/173/173 176/174/174
f 183/175/175 180/176/176 177/172/172
f 181/177/177 183/175/175 182/178/178
f 110/110/110 184/179/179 186/180/180
f 144/144/144 135/145/145 165/159/159
f 184/179/179 110/110/110 107/108/108
f 183/175/175 187/181/181 186/180/180
f 115/113/113 190/182/182 191/183/183
f 190/182/182 114/115/115 113/184/184
f 183/175/175 188/185/185 189/186/186
f 183/175/175 177/172/172 188/185/185
f 195/187/187 190/182/182 187/181/181
f 177/172/172 198/188/188 188/185/185
f 192/117/117 120/122/122 119/118/118
f 189/186/186 188/185/185 199/189/189
f 190/182/182 195/187/187 191/183/183
f 197/190/190 192/117/117 196/157/157
f 192/117/117 197/190/190 120/122/122
f 202/191/191 193/192/192 199/189/189
f 194/193/193 193/192/192 200/194/194
f 191/183/183 195/187/187 165/159/159
f 170/166/166 198/188/188 172/167/167
f 159/163/163 198/188/188 170/166/166
f 193/192/192 202/191/191 185/195/195
f 196/157/157 191/183/183 164/158/158
f 159/163/163 170/166/166 168/164/164
f 185/195/195 202/191/191 138/139/139
f 185/195/195 143/141/141 200/194/194
f 111/112/112 109/109/109 110/110/110
f 113/184/184 112/111/111 110/110/110
f 192/117/117 118/119/119 117/116/116
f 124/196/196 125/125/125 201/124/124
f 126/197/197 124/196/196 201/124/124
f 127/127/127 128/136/136 201/124/124
f 126/197/197 201/124/124 128/136/136
f 127/127/127 132/198/198 133/199/199 131/128/128
f 193/192/192 194/193/193 187/181/181 189/186/186
f 135/145/145 134/200/200 132/198/198
f 136/143/143 134/200/200 135/145/145
f 153/129/129 137/131/131 138/139/139
f 136/143/143 142/133/133 139/132/132
f 143/141/141 142/133/133 144/144/144
f 146/153/153 148/140/140 137/131/131
f 154/152/152 148/140/140 146/153/153
f 157/154/154 158/201/201 155/151/151
f 161/130/130 153/129/129 159/163/163
f 160/155/155 146/153/153 161/130/130
f 163/161/161 162/156/156 161/130/130
f 200/194/194 143/141/141 166/160/160
f 159/163/163 167/162/162 161/130/130
f 173/169/169 172/167/167 174/170/170
f 175/171/171 172/167/167 176/174/174
f 177/172/172 180/176/176 179/202/202
f 181/177/177 180/176/176 183/175/175
f 183/175/175 186/180/180 182/178/178
f 186/180/180 184/179/179 182/178/178
f 132/198/198 164/158/158 135/145/145
f 127/127/127 164/158/158 132/198/198
f 164/158/158 165/159/159 135/145/145
f 185/195/195 138/139/139 143/141/141
f 186/180/180 187/181/181 110/110/110
f 189/186/186 187/181/181 183/175/175
f 113/184/184 110/110/110 187/181/181
f 187/181/181 190/182/182 113/184/184
f 114/115/115 190/182/182 115/113/113
f 191/183/183 192/117/117 115/113/113
f 199/189/189 193/192/192 189/186/186
f 172/167/167 198/188/188 177/172/172 176/174/174
f 195/187/187 187/181/181 194/193/193
f 196/157/157 192/117/117 191/183/183
f 122/120/120 120/122/122 197/190/190
f 188/185/185 198/188/188 159/163/163
f 200/194/194 166/160/160 194/193/193
f 195/187/187 194/193/193 166/160/160
f 166/160/160 165/159/159 195/187/187
f 201/124/124 197/190/190 196/157/157
f 201/124/124 122/120/120 197/190/190
f 199/189/189 188/185/185 153/129/129
f 159/163/163 153/129/129 188/185/185
f 200/194/194 193/192/192 185/195/195
f 202/191/191 199/189/189 153/129/129
f 165/159/159 164/158/158 191/183/183
f 201/124/124 196/157/157 127/127/127
f 138/139/139 202/191/191 153/129/129
